<svg width="160" height="161" viewBox="0 0 160 161" fill="none" xmlns="http://www.w3.org/2000/svg">
<path d="M60.6897 0.5H55.1724V6.01724H60.6897V0.5Z" fill="white"/>
<path d="M88.2758 0.5H82.7586V6.01724H88.2758V0.5Z" fill="white"/>
<path d="M88.2758 0.5H93.7931V6.01724H88.2758V0.5Z" fill="white"/>
<path d="M104.828 0.5H99.3104V6.01724H104.828V0.5Z" fill="white"/>
<path d="M44.1379 6.01724L55.1724 6.01724L55.1724 11.5345V17.0517V33.6035H49.6552V50.1552H44.1379V33.6035H49.6552L49.6552 22.569H44.1379V6.01724Z" fill="white"/>
<path d="M60.6897 6.01724L66.2069 6.01724V11.5345L60.6897 11.5345V17.0517H66.2069V22.569H60.6896L60.6897 17.0517H55.1724V11.5345L60.6897 11.5345V6.01724Z" fill="white"/>
<path d="M66.2069 6.01724V11.5345V17.0517H77.2414V11.5345V6.01724H66.2069Z" fill="white"/>
<path d="M82.7586 6.01724L77.2414 6.01724V11.5345H82.7586L82.7586 17.0517H88.2758V11.5345L82.7586 11.5345L82.7586 6.01724Z" fill="white"/>
<path d="M99.3104 6.01724H93.7931L93.7931 11.5345H99.3103L99.3104 6.01724Z" fill="white"/>
<path fill-rule="evenodd" clip-rule="evenodd" d="M110.345 6.01724H115.862V44.6379H110.345V28.0862V22.569V6.01724ZM115.862 44.6379H121.379V50.1552H115.862L115.862 44.6379Z" fill="white"/>
<path d="M104.828 11.5345L99.3103 11.5345L99.3104 17.0517H104.828V11.5345Z" fill="white"/>
<path d="M88.2758 17.0517H99.3104L99.3103 22.569H93.7931V28.0862H88.2759V22.569L88.2758 17.0517Z" fill="white"/>
<path d="M82.7586 22.569H88.2759V28.0862L88.2758 33.6035H82.7586V22.569Z" fill="white"/>
<path d="M82.7586 33.6035L82.7586 39.1207H88.2758V44.6379H77.2414V33.6035H82.7586Z" fill="white"/>
<path d="M104.828 22.569H110.345V28.0862H104.828V22.569Z" fill="white"/>
<path d="M71.7242 28.0862H66.2069V39.1207H71.7242V28.0862Z" fill="white"/>
<path d="M60.6897 33.6035H55.1724L55.1724 39.1207H60.6896V44.6379H55.1724V50.1552H60.6897L60.6896 44.6379H66.2069L66.2069 39.1207H60.6896L60.6897 33.6035Z" fill="white"/>
<path d="M88.2758 33.6035H93.7931V44.6379H99.3103V50.1552V55.6724V61.1897H88.2759V55.6724L88.2758 44.6379V39.1207V33.6035Z" fill="white"/>
<path d="M104.828 33.6035H99.3104L99.3103 44.6379H104.828L104.828 50.1552H99.3103V55.6724H110.345L110.345 44.6379H104.828V33.6035Z" fill="white"/>
<path d="M0 44.6379H5.51724V55.6724H0V44.6379Z" fill="white"/>
<path d="M5.51721 61.1897L5.51724 55.6724L11.0345 55.6724V61.1897H5.51721Z" fill="white"/>
<path fill-rule="evenodd" clip-rule="evenodd" d="M5.51724 66.7069H0V61.1897H5.51721L5.51724 66.7069ZM5.51724 66.7069H11.0345V72.2241H5.51721L5.51724 66.7069Z" fill="white"/>
<path d="M38.6207 44.6379H33.1035V50.1552H38.6207V44.6379Z" fill="white"/>
<path fill-rule="evenodd" clip-rule="evenodd" d="M121.379 44.6379H126.897V50.1552H121.379V44.6379ZM126.897 50.1552H132.414V55.6724H126.897L126.897 50.1552Z" fill="white"/>
<path d="M137.931 44.6379V50.1552H132.414V55.6724H137.931L137.931 50.1552H143.448L143.448 55.6724H148.965V44.6379H137.931Z" fill="white"/>
<path d="M154.483 44.6379H148.965V55.6724H154.483V44.6379Z" fill="white"/>
<path d="M16.5517 50.1552H11.0345L11.0345 55.6724V61.1897V66.7069H16.5517V61.1897H22.0689V55.6724L16.5517 55.6724V50.1552Z" fill="white"/>
<path d="M27.5862 50.1552H33.1035L33.1034 55.6724H27.5862V50.1552Z" fill="white"/>
<path d="M27.5862 61.1897H22.0689V55.6724L27.5862 55.6724L27.5862 61.1897Z" fill="white"/>
<path d="M27.5862 72.2241L27.5862 61.1897H33.1034V66.7069V72.2241H27.5862Z" fill="white"/>
<path d="M27.5862 72.2241L27.5862 83.2586H22.069V72.2241H27.5862Z" fill="white"/>
<path d="M77.2414 50.1552H71.7241V55.6724L66.2069 55.6724V66.7069H71.7242L71.7241 72.2241H77.2414V61.1897V55.6724V50.1552Z" fill="white"/>
<path d="M33.1034 55.6724L44.1379 55.6724V66.7069H38.6207V61.1897H33.1034V55.6724Z" fill="white"/>
<path d="M38.6207 72.2241H33.1034V66.7069H38.6207L38.6207 72.2241Z" fill="white"/>
<path d="M38.6207 77.7414L38.6207 72.2241H44.1379V77.7414H38.6207Z" fill="white"/>
<path d="M38.6207 77.7414L38.6207 83.2586H33.1035V77.7414H38.6207Z" fill="white"/>
<path fill-rule="evenodd" clip-rule="evenodd" d="M44.1379 55.6724H55.1724V61.1897V66.7069H49.6552V72.2241H44.1379V66.7069V55.6724ZM49.6552 72.2241H55.1724V77.7414V83.2586V88.7759H44.1379L44.1379 77.7414H49.6552L49.6552 72.2241Z" fill="white"/>
<path d="M77.2414 55.6724H88.2759V61.1897H77.2414V55.6724Z" fill="white"/>
<path d="M55.1724 61.1897H60.6897V77.7414H55.1724V72.2241V66.7069V61.1897Z" fill="white"/>
<path d="M115.862 61.1897H110.345V66.7069V77.7414H115.862L115.862 83.2586H121.379V77.7414V72.2241H115.862V61.1897Z" fill="white"/>
<path fill-rule="evenodd" clip-rule="evenodd" d="M121.379 61.1897H132.414V72.2241H126.897V77.7414H121.379V72.2241L121.379 61.1897ZM126.897 77.7414H132.414V83.2586V88.7759V94.2931V99.8103H121.379V94.2931H126.897L126.897 77.7414Z" fill="white"/>
<path d="M137.931 61.1897H143.448V66.7069H137.931V61.1897Z" fill="white"/>
<path d="M88.2758 66.7069H82.7586V72.2241H88.2758V66.7069Z" fill="white"/>
<path fill-rule="evenodd" clip-rule="evenodd" d="M88.2758 66.7069H93.7931V77.7414H88.2759L88.2758 72.2241V66.7069ZM93.7931 77.7414H99.3103V83.2586H93.7931L93.7931 77.7414Z" fill="white"/>
<path d="M110.345 66.7069H104.828V77.7414H99.3103V83.2586L99.3104 88.7759V99.8103H104.828L104.828 105.328L99.3104 105.328V110.845H104.828L104.828 105.328H110.345V99.8103V94.2931V83.2586H104.828L104.828 77.7414H110.345V66.7069Z" fill="white"/>
<path d="M160 66.7069H154.483V72.2241V77.7414H160V66.7069Z" fill="white"/>
<path d="M11.0345 72.2241H16.5517V77.7414H11.0345L11.0345 72.2241Z" fill="white"/>
<path d="M132.414 72.2241H137.931V77.7414H132.414V72.2241Z" fill="white"/>
<path fill-rule="evenodd" clip-rule="evenodd" d="M143.448 99.8103H148.965V94.2931V77.7414H137.931L137.931 83.2586H132.414V88.7759H137.931L137.931 94.2931H132.414V99.8103H137.931L137.931 105.328L132.414 105.328V116.362V132.914V138.431H137.931L137.931 143.948H132.414V149.466H137.931L137.931 154.983H132.414V160.5H148.965V149.466V138.431H143.448V132.914H137.931V127.397H148.965V121.879H143.448L143.448 116.362H148.965V110.845H143.448V116.362H137.931L137.931 105.328H143.448L143.448 99.8103ZM143.448 99.8103L143.448 94.2931H137.931L137.931 99.8103H143.448ZM137.931 88.7759L137.931 83.2586H143.448L143.448 88.7759H137.931Z" fill="white"/>
<path d="M154.483 72.2241H148.966L148.965 77.7414H154.483V72.2241Z" fill="white"/>
<path d="M0 77.7414V83.2586H11.0345L11.0345 77.7414H0Z" fill="white"/>
<path d="M60.6897 83.2586H55.1724V88.7759H60.6897L60.6896 105.328L55.1724 105.328V110.845H60.6897L60.6896 116.362H55.1724V121.879H60.6897L60.6896 116.362H66.2069V110.845H60.6897L60.6896 105.328H66.2069V88.7759H60.6897V83.2586Z" fill="white"/>
<path d="M82.7586 83.2586H88.2758V88.7759H82.7586V83.2586Z" fill="white"/>
<path d="M154.483 83.2586H160V88.7759H154.483V83.2586Z" fill="white"/>
<path d="M5.51724 88.7759H0V116.362H5.51724V105.328H11.0345V99.8103H5.51724V88.7759Z" fill="white"/>
<path d="M22.069 88.7759H33.1034V94.2931H22.069V88.7759Z" fill="white"/>
<path d="M33.1034 88.7759H38.6207V94.2931H33.1034V88.7759Z" fill="white"/>
<path d="M38.6207 99.8103L38.6207 94.2931H44.1379V99.8103H38.6207Z" fill="white"/>
<path d="M38.6207 99.8103L38.6207 105.328H33.1035V99.8103H38.6207Z" fill="white"/>
<path d="M88.2758 88.7759H99.3104V99.8103H93.7931L93.7931 94.2931H88.2759L88.2758 88.7759Z" fill="white"/>
<path d="M44.1379 94.2931V99.8103L44.1379 105.328H49.6552L49.6552 116.362H44.1379V121.879H55.1724V116.362V110.845V105.328L55.1724 94.2931H44.1379Z" fill="white"/>
<path d="M71.7241 94.2931H77.2414V99.8103H71.7241V94.2931Z" fill="white"/>
<path d="M82.7586 94.2931H77.2414V99.8103H82.7586L82.7586 105.328H88.2758V99.8103H82.7586V94.2931Z" fill="white"/>
<path d="M115.862 94.2931H110.345V99.8103H115.862V94.2931Z" fill="white"/>
<path d="M148.965 94.2931H154.483V99.8103H148.965V94.2931Z" fill="white"/>
<path d="M160 94.2931H154.483V99.8103L154.483 105.328H160V94.2931Z" fill="white"/>
<path d="M16.5517 99.8103H22.0689V105.328V110.845H11.0345L11.0345 105.328H16.5517V99.8103Z" fill="white"/>
<path d="M22.0689 99.8103V105.328H27.5862L27.5862 110.845H22.0689L22.069 116.362H27.5862L27.5862 110.845H33.1034L33.1035 105.328V99.8103H22.0689Z" fill="white"/>
<path d="M66.2069 105.328V110.845H77.2414V105.328L66.2069 105.328Z" fill="white"/>
<path d="M110.345 105.328L121.379 105.328V116.362H115.862V132.914H121.379V138.431V143.948V149.466V154.983V160.5H115.862L115.862 138.431H110.345V121.879L110.345 105.328Z" fill="white"/>
<path d="M121.379 105.328H132.414V116.362H121.379V105.328Z" fill="white"/>
<path d="M33.1034 110.845L33.1035 116.362H44.1379L44.1379 110.845H33.1034Z" fill="white"/>
<path d="M77.2414 110.845L77.2414 121.879H82.7586V116.362H88.2758V110.845H77.2414Z" fill="white"/>
<path d="M99.3104 110.845H93.7931V121.879H99.3103V116.362L99.3104 110.845Z" fill="white"/>
<path d="M148.965 110.845H154.483V116.362H148.965V110.845Z" fill="white"/>
<path d="M160 110.845H154.483V116.362H160V110.845Z" fill="white"/>
<path d="M104.828 116.362H99.3103V121.879L99.3104 127.397H104.828L104.828 138.431H99.3104V143.948H104.828L104.828 154.983H99.3104V160.5H110.345V143.948H104.828L104.828 138.431H110.345V121.879H104.828V116.362Z" fill="white"/>
<path d="M71.7242 121.879H66.2069V127.397H71.7242V121.879Z" fill="white"/>
<path d="M126.897 121.879H121.379V127.397H126.897V121.879Z" fill="white"/>
<path d="M55.1724 127.397V132.914H66.2069L66.2069 127.397H55.1724Z" fill="white"/>
<path d="M77.2414 127.397V132.914V143.948H82.7586L82.7586 154.983H77.2414V160.5H82.7586L82.7586 154.983H88.2758V149.466V143.948H82.7586V132.914H88.2758V127.397H77.2414Z" fill="white"/>
<path d="M93.7931 127.397H88.2758V132.914L88.2759 138.431H93.7931L93.7931 143.948H88.2758V149.466H99.3103L99.3104 143.948V138.431H93.7931V127.397Z" fill="white"/>
<path d="M160 127.397H154.483V132.914H160V127.397Z" fill="white"/>
<path d="M66.2069 132.914H77.2414V143.948H71.7241L71.7242 138.431H66.2069L66.2069 132.914Z" fill="white"/>
<path d="M121.379 132.914V138.431H126.897L126.897 143.948H121.379V149.466H126.897L126.897 154.983H121.379V160.5H132.414V154.983V149.466V143.948V138.431V132.914H121.379Z" fill="white"/>
<path d="M55.1724 138.431H49.6552V149.466H55.1724V138.431Z" fill="white"/>
<path d="M55.1724 138.431H66.2069L66.2069 143.948H60.6897V149.466H55.1724V138.431Z" fill="white"/>
<path d="M148.965 138.431H154.483V149.466H148.965V138.431Z" fill="white"/>
<path fill-rule="evenodd" clip-rule="evenodd" d="M66.2069 149.466H71.7242V154.983H66.2069V149.466ZM71.7242 154.983H77.2414V160.5H71.7241L71.7242 154.983Z" fill="white"/>
<path d="M160 149.466H154.483L154.483 154.983H160V149.466Z" fill="white"/>
<path d="M44.1379 154.983H55.1724V160.5H44.1379V154.983Z" fill="white"/>
<path d="M60.6896 154.983H66.2069L66.2069 160.5H60.6896V154.983Z" fill="white"/>
<path d="M99.3104 154.983H93.7931V160.5H99.3104V154.983Z" fill="white"/>
<path fill-rule="evenodd" clip-rule="evenodd" d="M38.6207 0.5V39.1207H0V0.5H38.6207ZM5.79309 33.3276H32.8276V6.29311H5.79309V33.3276Z" fill="white"/>
<path fill-rule="evenodd" clip-rule="evenodd" d="M160 0.5V39.1207H121.379V0.5H160ZM127.172 33.3276H154.207V6.29311H127.172V33.3276Z" fill="white"/>
<path fill-rule="evenodd" clip-rule="evenodd" d="M38.6207 121.879V160.5H0V121.879H38.6207ZM5.79309 154.707H32.8276V127.672H5.79309V154.707Z" fill="white"/>
<path d="M11.0345 11.5345H27.5862V28.0862H11.0345V11.5345Z" fill="white"/>
<path d="M132.414 11.5345H148.966V28.0862H132.414V11.5345Z" fill="white"/>
<path d="M11.0345 132.914H27.5862V149.466H11.0345V132.914Z" fill="white"/>
</svg>
