<svg width="2500" height="2500" viewBox="0 0 2500 2500" fill="none" xmlns="http://www.w3.org/2000/svg">
<g clip-path="url(#clip0_1_3)">
<circle cx="1250" cy="1250" r="1250" fill="white"/>
<path d="M1205.76 378.069V1732.83C1205.76 1844.84 1379.82 1845.01 1379.82 1732.83V378.069C1379.82 266.064 1205.76 265.89 1205.76 378.069ZM2185.18 767.867C2011.12 849.064 1837.06 930.348 1663.01 1011.55C1648.47 1018.33 1649.08 1042.18 1663.01 1049.14C1831.23 1133.3 1999.54 1217.37 2167.77 1301.52C2192.75 1313.97 2214.85 1276.46 2189.7 1263.93C2021.48 1179.77 1853.16 1095.7 1684.94 1011.55V1049.14C1858.99 967.944 2033.05 886.66 2207.11 805.463C2232.52 793.627 2210.41 756.118 2185.18 767.867Z" fill="#67BECE"/>
<path d="M283.093 1249.57C381.783 1717.25 756.612 2088.08 1225.78 2181.11C1304.45 2196.69 1384.87 2205.48 1465.11 2205.66C1521.07 2205.74 1521.15 2118.71 1465.11 2118.63C1029.27 2118.11 626.592 1861.98 444.791 1464.96C409.893 1388.81 384.22 1308.31 366.988 1226.42C355.414 1171.68 271.519 1194.83 283.093 1249.57Z" fill="#3F54A3"/>
</g>
<defs>
<clipPath id="clip0_1_3">
<rect width="2500" height="2500" fill="white"/>
</clipPath>
</defs>
</svg>
